<svg width="500" height="746" viewBox="0 0 500 746" fill="none" xmlns="http://www.w3.org/2000/svg">
<path d="M116.467 245.735C115.995 206.519 153.675 201.833 172.575 204.392C176.355 216.205 202.105 232.545 214.508 239.238C239.55 249.16 265.104 244.16 274.75 240.419L291.287 230.379C303.572 225.182 313.73 211.676 317.274 205.573C360.743 201.794 370.429 228.804 369.838 242.782C368.421 268.296 346.804 279.006 336.173 281.171H369.838C397.242 283.534 410.787 311.686 414.134 325.467L422.993 395.159L417.677 390.434H89.8899C85.6375 389.489 79.8495 393.584 77.4871 395.749C83.6294 335.743 88.3149 314.836 89.8899 311.883C105.954 283.061 133.201 279.006 144.816 280.581C126.389 276.801 118.239 255.775 116.467 245.735Z" fill="#FF7315" stroke="black" stroke-width="3"/>
<path d="M340.898 280.581H320.306C315.483 282.943 305.725 289.794 305.28 298.299C306.022 308.142 302.609 327.829 283.019 327.829" stroke="black" stroke-width="3"/>
<path d="M143.045 279.99H164.897C170.016 282.352 180.371 289.203 180.843 297.708C180.056 307.552 183.678 327.239 204.468 327.239" stroke="black" stroke-width="3"/>
<path d="M151.313 228.017H195.018C192.183 250.696 193.837 266.603 195.018 271.722C189.348 262.272 176.512 257.547 170.803 256.366H151.313C144.816 255.185 142.454 252.822 140.092 243.372C138.202 235.813 146.785 229.985 151.313 228.017Z" fill="#9B2121" stroke="black" stroke-width="3"/>
<path d="M335.05 228.607H294.831C297.44 250.061 295.918 265.108 294.831 269.95C300.049 261.011 311.861 256.541 317.115 255.424H335.05C341.029 254.307 343.203 252.072 345.377 243.133C347.116 235.982 339.217 230.469 335.05 228.607Z" fill="#9B2121" stroke="black" stroke-width="3"/>
<path d="M275.931 239.829C258.922 249.751 227.895 243.963 214.508 239.829C210.728 273.848 234.195 284.321 246.401 285.305C275.695 285.305 278.294 254.988 275.931 239.829Z" fill="#FFC897" stroke="black" stroke-width="3"/>
<path d="M243.448 307.158C189.585 299.598 189.506 251.641 196.199 228.607L215.099 239.238C208.956 272.785 231.439 283.534 243.448 284.715C274.632 288.022 278.097 255.775 275.931 239.238L294.24 228.607C309.36 291.92 266.679 307.355 243.448 307.158Z" fill="#FF7315" stroke="black" stroke-width="3"/>
<path d="M138.91 743.027C94.4966 745.862 92.8429 707.984 97.5678 688.691L112.333 695.188C102.883 730.624 126.114 741.846 138.91 743.027Z" fill="#282323" stroke="black" stroke-width="3"/>
<path d="M340.898 742.436C383.422 749.524 392.872 724.915 392.281 711.725C398.896 681.013 319.833 662.704 279.475 657.389V718.812C303.099 732.514 330.267 740.271 340.898 742.436Z" fill="#442C29" stroke="black" stroke-width="3"/>
<path d="M301.328 676.879C305.265 683.375 310.069 699.086 297.784 709.953" stroke="black" stroke-width="5"/>
<path d="M316.683 681.604C320.621 688.1 325.424 703.81 313.14 714.678" stroke="black" stroke-width="5"/>
<path d="M332.039 686.328C335.977 692.825 340.78 708.535 328.495 719.402" stroke="black" stroke-width="5"/>
<path d="M278.884 644.986C317.274 649.317 395.825 663.885 402.912 687.51C410.297 707.915 410.469 747.196 353.208 743.205C352.408 743.162 351.649 743.102 350.939 743.027C351.705 743.094 352.461 743.153 353.208 743.205C365.058 743.843 385.935 740.65 389.919 722.946C395.234 699.322 395.825 677.469 278.884 657.979V644.986Z" fill="#282323" stroke="black" stroke-width="3"/>
<path d="M279.475 636.717H249.945V730.624H279.475V636.717Z" fill="#607691" stroke="black" stroke-width="5"/>
<path d="M279.475 642.623C349.876 635.536 385.194 591.634 394.053 570.569C408.7 566.317 411.968 553.835 411.771 548.126C477.447 515.525 496.622 553.835 498 577.066C494.693 626.205 433.23 669.988 402.912 685.738C392.045 663.531 316.093 649.711 279.475 645.576V642.623Z" fill="#2A3749" stroke="black" stroke-width="3"/>
<path d="M6.02353 555.214C37.6801 524.974 73.156 537.102 86.9368 546.945C88.3543 563.955 100.915 569.782 107.017 570.569C127.807 630.103 210.964 644.198 249.945 643.805V721.765C160.645 719.875 102.883 693.022 85.165 679.832C-1.7725 627.858 -3.81994 575.097 6.02353 555.214Z" fill="#2A3749" stroke="black" stroke-width="3"/>
<path d="M249.945 642.033C152.612 642.978 113.711 594.784 106.427 570.569L394.644 568.797C375.744 620.771 309.596 639.277 278.884 642.033V636.127H249.945V642.033Z" fill="#141E28" stroke="black" stroke-width="3"/>
<path d="M133.004 569.979C166.779 595.828 262.966 632.018 377.516 569.979H133.004Z" fill="#FF7315" stroke="black" stroke-width="3"/>
<path d="M87.5275 546.945L71.581 416.421C69.3298 397.994 81.274 391.418 87.5275 390.434L412.362 391.615C425.119 391.615 429.096 403.427 429.49 409.333L412.362 547.536C412.362 560.765 401.731 568.01 396.415 569.979H106.427C92.7248 569.979 88.1181 554.623 87.5275 546.945Z" fill="#B5B5B5" stroke="black" stroke-width="3"/>
<path d="M272.388 476.072C272.388 480.16 271.175 484.157 268.904 487.556C266.633 490.956 263.404 493.605 259.627 495.17C255.85 496.734 251.694 497.144 247.684 496.346C243.674 495.548 239.991 493.58 237.1 490.689C234.209 487.798 232.24 484.115 231.442 480.105C230.645 476.095 231.054 471.939 232.619 468.161C234.183 464.384 236.833 461.156 240.232 458.884C243.631 456.613 247.628 455.401 251.716 455.401V476.072H272.388Z" fill="#F3F3F3"/>
<path d="M164.306 742.436C108.553 751.413 106.427 714.678 112.333 695.188C139.737 709.362 193.837 718.024 217.461 720.584C207.066 730.506 177.694 739.286 164.306 742.436Z" fill="#442C29" stroke="black" stroke-width="3"/>
<path d="M139.501 362.675L137.138 389.253" stroke="black" stroke-width="3"/>
<path d="M362.751 363.266V389.843" stroke="black" stroke-width="3"/>
<path d="M197.971 312.474V390.434" stroke="black" stroke-width="5"/>
<path d="M289.515 311.883V357.36" stroke="black" stroke-width="5"/>
<path d="M159.582 174.862V72.6868C163.361 68.9068 167.85 69.9306 169.622 70.9151C187.576 82.2547 219.233 88.6333 232.817 90.4051C262.111 88.9877 287.153 79.5773 296.012 75.0493C307.824 80.7192 319.046 75.8367 323.18 72.6868C327.432 69.3793 330.07 73.2774 330.858 75.6398V167.184C330.858 178.524 322.589 197.108 318.455 204.983C307.588 221.52 285.184 234.71 275.341 239.238C236.124 251.523 206.24 236.482 196.199 227.426C173.52 216.559 162.338 187.855 159.582 174.862Z" fill="#FFC897" stroke="black" stroke-width="3"/>
<circle cx="289.515" cy="367.4" r="11.2216" fill="black"/>
<circle cx="289.515" cy="367.4" r="5.31547" fill="#C4C4C4"/>
<circle cx="215.689" cy="128.204" r="7.0873" fill="black"/>
<circle cx="277.113" cy="128.204" r="7.0873" fill="black"/>
<path d="M195.018 115.801C199.152 112.257 211.319 106.706 226.911 112.848" stroke="black" stroke-width="3"/>
<path d="M298.374 116.392C294.087 112.724 281.47 106.978 265.3 113.335" stroke="black" stroke-width="3"/>
<path d="M243.448 149.466L236.951 168.956L250.535 170.728" stroke="black" stroke-width="3"/>
<path d="M275.341 183.13C276.128 192.383 270.852 210.535 243.448 209.117" stroke="black" stroke-width="3"/>
<path d="M158.991 112.848C146.512 122.369 129.041 144.676 158.991 157.734V112.848Z" fill="#FFC897" stroke="black" stroke-width="3"/>
<path d="M332.63 112.848C345.109 122.369 362.58 144.676 332.63 157.734V112.848Z" fill="#FFC897" stroke="black" stroke-width="3"/>
<path d="M150.722 55.5588V119.344L158.991 112.848L159.582 72.6867C161.944 68.9068 167.259 69.9305 169.622 70.9148C184.741 82.2545 219.233 88.6331 234.589 90.4049C253.488 90.4049 283.412 80.1677 296.012 75.0491C313.73 81.5458 320.818 73.2773 324.952 70.9148C328.259 69.0249 331.055 73.2773 332.039 75.6397V111.076L340.898 120.526V57.3309C339.008 34.6515 325.149 23.0754 318.455 20.1223C304.753 11.1448 293.453 16.3817 289.515 20.1223C262.938 8.31012 266.482 0.0416125 212.146 2.40404C168.677 4.29399 153.085 38.628 150.722 55.5588Z" fill="#231916" stroke="black" stroke-width="3"/>
</svg>
