<svg width="176" height="83" viewBox="0 0 176 83" fill="none" xmlns="http://www.w3.org/2000/svg">
<path d="M0 14.5C10.8333 14 32.5 20.5 32.5 50.5C36.1667 29.6667 34.8 -6.69998 0 14.5Z" fill="#FF7315"/>
<path d="M65.3872 13.418C54.5539 12.918 32.8872 19.418 32.8872 49.418C29.2205 28.5846 30.5872 -7.78201 65.3872 13.418Z" fill="#FF7315"/>
<path d="M0.5 58C11.3333 58.5 33 52 33 22C36.6667 42.8333 35.3 79.2 0.5 58Z" fill="#FF7315"/>
<path d="M65.3872 61C54.5539 61.5 32.8872 55 32.8872 25C29.2205 45.8333 30.5872 82.2 65.3872 61Z" fill="#FF7315"/>
<path d="M90.9783 15.675C90.9783 17.125 90.4783 18.3333 89.4783 19.3C88.495 20.25 86.9867 20.725 84.9533 20.725H81.6033V28H79.3283V10.575H84.9533C86.92 10.575 88.4117 11.05 89.4283 12C90.4617 12.95 90.9783 14.175 90.9783 15.675ZM84.9533 18.85C86.22 18.85 87.1533 18.575 87.7533 18.025C88.3533 17.475 88.6533 16.6917 88.6533 15.675C88.6533 13.525 87.42 12.45 84.9533 12.45H81.6033V18.85H84.9533ZM96.0809 16.525C96.4809 15.7417 97.0475 15.1333 97.7809 14.7C98.5309 14.2667 99.4392 14.05 100.506 14.05V16.4H99.9059C97.3559 16.4 96.0809 17.7833 96.0809 20.55V28H93.8059V14.3H96.0809V16.525ZM109.107 28.225C107.824 28.225 106.657 27.9333 105.607 27.35C104.574 26.7667 103.757 25.9417 103.157 24.875C102.574 23.7917 102.282 22.5417 102.282 21.125C102.282 19.725 102.582 18.4917 103.182 17.425C103.799 16.3417 104.632 15.5167 105.682 14.95C106.732 14.3667 107.907 14.075 109.207 14.075C110.507 14.075 111.682 14.3667 112.732 14.95C113.782 15.5167 114.607 16.3333 115.207 17.4C115.824 18.4667 116.132 19.7083 116.132 21.125C116.132 22.5417 115.815 23.7917 115.182 24.875C114.565 25.9417 113.724 26.7667 112.657 27.35C111.59 27.9333 110.407 28.225 109.107 28.225ZM109.107 26.225C109.924 26.225 110.69 26.0333 111.407 25.65C112.124 25.2667 112.699 24.6917 113.132 23.925C113.582 23.1583 113.807 22.225 113.807 21.125C113.807 20.025 113.59 19.0917 113.157 18.325C112.724 17.5583 112.157 16.9917 111.457 16.625C110.757 16.2417 109.999 16.05 109.182 16.05C108.349 16.05 107.582 16.2417 106.882 16.625C106.199 16.9917 105.649 17.5583 105.232 18.325C104.815 19.0917 104.607 20.025 104.607 21.125C104.607 22.2417 104.807 23.1833 105.207 23.95C105.624 24.7167 106.174 25.2917 106.857 25.675C107.54 26.0417 108.29 26.225 109.107 26.225ZM124.773 14.075C125.957 14.075 126.99 14.3333 127.873 14.85C128.773 15.3667 129.44 16.0167 129.873 16.8V14.3H132.173V28.3C132.173 29.55 131.907 30.6583 131.373 31.625C130.84 32.6083 130.073 33.375 129.073 33.925C128.09 34.475 126.94 34.75 125.623 34.75C123.823 34.75 122.323 34.325 121.123 33.475C119.923 32.625 119.215 31.4667 118.998 30H121.248C121.498 30.8333 122.015 31.5 122.798 32C123.582 32.5167 124.523 32.775 125.623 32.775C126.873 32.775 127.89 32.3833 128.673 31.6C129.473 30.8167 129.873 29.7167 129.873 28.3V25.425C129.423 26.225 128.757 26.8917 127.873 27.425C126.99 27.9583 125.957 28.225 124.773 28.225C123.557 28.225 122.448 27.925 121.448 27.325C120.465 26.725 119.69 25.8833 119.123 24.8C118.557 23.7167 118.273 22.4833 118.273 21.1C118.273 19.7 118.557 18.475 119.123 17.425C119.69 16.3583 120.465 15.5333 121.448 14.95C122.448 14.3667 123.557 14.075 124.773 14.075ZM129.873 21.125C129.873 20.0917 129.665 19.1917 129.248 18.425C128.832 17.6583 128.265 17.075 127.548 16.675C126.848 16.2583 126.073 16.05 125.223 16.05C124.373 16.05 123.598 16.25 122.898 16.65C122.198 17.05 121.64 17.6333 121.223 18.4C120.807 19.1667 120.598 20.0667 120.598 21.1C120.598 22.15 120.807 23.0667 121.223 23.85C121.64 24.6167 122.198 25.2083 122.898 25.625C123.598 26.025 124.373 26.225 125.223 26.225C126.073 26.225 126.848 26.025 127.548 25.625C128.265 25.2083 128.832 24.6167 129.248 23.85C129.665 23.0667 129.873 22.1583 129.873 21.125ZM135.168 21.1C135.168 19.7 135.451 18.475 136.018 17.425C136.584 16.3583 137.359 15.5333 138.343 14.95C139.343 14.3667 140.451 14.075 141.668 14.075C142.868 14.075 143.909 14.3333 144.793 14.85C145.676 15.3667 146.334 16.0167 146.768 16.8V14.3H149.068V28H146.768V25.45C146.318 26.25 145.643 26.9167 144.743 27.45C143.859 27.9667 142.826 28.225 141.643 28.225C140.426 28.225 139.326 27.925 138.343 27.325C137.359 26.725 136.584 25.8833 136.018 24.8C135.451 23.7167 135.168 22.4833 135.168 21.1ZM146.768 21.125C146.768 20.0917 146.559 19.1917 146.143 18.425C145.726 17.6583 145.159 17.075 144.443 16.675C143.743 16.2583 142.968 16.05 142.118 16.05C141.268 16.05 140.493 16.25 139.793 16.65C139.093 17.05 138.534 17.6333 138.118 18.4C137.701 19.1667 137.493 20.0667 137.493 21.1C137.493 22.15 137.701 23.0667 138.118 23.85C138.534 24.6167 139.093 25.2083 139.793 25.625C140.493 26.025 141.268 26.225 142.118 26.225C142.968 26.225 143.743 26.025 144.443 25.625C145.159 25.2083 145.726 24.6167 146.143 23.85C146.559 23.0667 146.768 22.1583 146.768 21.125ZM155.687 16.175V24.25C155.687 24.9167 155.829 25.3917 156.112 25.675C156.396 25.9417 156.887 26.075 157.587 26.075H159.262V28H157.212C155.946 28 154.996 27.7083 154.362 27.125C153.729 26.5417 153.412 25.5833 153.412 24.25V16.175H151.637V14.3H153.412V10.85H155.687V14.3H159.262V16.175H155.687ZM174.519 20.625C174.519 21.0583 174.494 21.5167 174.444 22H163.494C163.577 23.35 164.035 24.4083 164.869 25.175C165.719 25.925 166.744 26.3 167.944 26.3C168.927 26.3 169.744 26.075 170.394 25.625C171.06 25.1583 171.527 24.5417 171.794 23.775H174.244C173.877 25.0917 173.144 26.1667 172.044 27C170.944 27.8167 169.577 28.225 167.944 28.225C166.644 28.225 165.477 27.9333 164.444 27.35C163.427 26.7667 162.627 25.9417 162.044 24.875C161.46 23.7917 161.169 22.5417 161.169 21.125C161.169 19.7083 161.452 18.4667 162.019 17.4C162.585 16.3333 163.377 15.5167 164.394 14.95C165.427 14.3667 166.61 14.075 167.944 14.075C169.244 14.075 170.394 14.3583 171.394 14.925C172.394 15.4917 173.16 16.275 173.694 17.275C174.244 18.2583 174.519 19.375 174.519 20.625ZM172.169 20.15C172.169 19.2833 171.977 18.5417 171.594 17.925C171.21 17.2917 170.685 16.8167 170.019 16.5C169.369 16.1667 168.644 16 167.844 16C166.694 16 165.71 16.3667 164.894 17.1C164.094 17.8333 163.635 18.85 163.519 20.15H172.169Z" fill="white"/>
<path d="M86.2897 39.08V67H80.6897V39.08H86.2897ZM92.9425 60.68C95.5025 58.5467 97.5425 56.7733 99.0625 55.36C100.583 53.92 101.849 52.4267 102.863 50.88C103.876 49.3333 104.383 47.8133 104.383 46.32C104.383 44.96 104.063 43.8933 103.423 43.12C102.783 42.3467 101.796 41.96 100.463 41.96C99.1292 41.96 98.1025 42.4133 97.3825 43.32C96.6625 44.2 96.2892 45.4133 96.2625 46.96H90.8225C90.9292 43.76 91.8758 41.3333 93.6625 39.68C95.4758 38.0267 97.7692 37.2 100.543 37.2C103.583 37.2 105.916 38.0133 107.543 39.64C109.169 41.24 109.983 43.36 109.983 46C109.983 48.08 109.423 50.0667 108.303 51.96C107.183 53.8533 105.903 55.5067 104.463 56.92C103.023 58.3067 101.143 59.9867 98.8225 61.96H110.623V66.6H90.8625V62.44L92.9425 60.68ZM120.631 58.8C120.845 59.9733 121.325 60.88 122.071 61.52C122.845 62.1333 123.871 62.44 125.151 62.44C126.805 62.44 128.005 61.76 128.751 60.4C129.498 59.0133 129.871 56.6933 129.871 53.44C129.258 54.2933 128.391 54.96 127.271 55.44C126.178 55.92 124.991 56.16 123.711 56.16C122.005 56.16 120.458 55.8133 119.071 55.12C117.711 54.4 116.631 53.3467 115.831 51.96C115.031 50.5467 114.631 48.84 114.631 46.84C114.631 43.88 115.511 41.5333 117.271 39.8C119.031 38.04 121.431 37.16 124.471 37.16C128.258 37.16 130.925 38.3733 132.471 40.8C134.045 43.2267 134.831 46.88 134.831 51.76C134.831 55.2267 134.525 58.0667 133.911 60.28C133.325 62.4933 132.298 64.1733 130.831 65.32C129.391 66.4667 127.418 67.04 124.911 67.04C122.938 67.04 121.258 66.6667 119.871 65.92C118.485 65.1467 117.418 64.1467 116.671 62.92C115.951 61.6667 115.538 60.2933 115.431 58.8H120.631ZM124.871 51.6C126.258 51.6 127.351 51.1733 128.151 50.32C128.951 49.4667 129.351 48.32 129.351 46.88C129.351 45.3067 128.925 44.0933 128.071 43.24C127.245 42.36 126.111 41.92 124.671 41.92C123.231 41.92 122.085 42.3733 121.231 43.28C120.405 44.16 119.991 45.3333 119.991 46.8C119.991 48.2133 120.391 49.3733 121.191 50.28C122.018 51.16 123.245 51.6 124.871 51.6Z" fill="#FF7315"/>
</svg>
